<svg xmlns="http://www.w3.org/2000/svg" viewBox="0 0 500 500"><path fill="#fbfbfb" stroke="#fbfbfb" d="M282 137.992c0 .554-.66 1.008-1.468 1.008-2.421 0-.211 4.321 2.304 4.506 1.19.088 2.164-.178 2.164-.591s.23-1.352.512-2.085c.281-.734-.394-1.9-1.5-2.591-1.189-.742-2.012-.843-2.012-.247m-16.308 6.368c-.346.902-1.408 1.64-2.361 1.64-1.346 0-1.464.267-.531 1.2.66.66 1.2 1.897 1.2 2.75 0 1.057.958 1.55 3.011 1.55 2.146 0 2.859-.396 2.483-1.377-.291-.757-.016-1.994.611-2.75.864-1.041.834-1.373-.122-1.373-.695 0-1.802-.738-2.462-1.64-1.112-1.521-1.245-1.521-1.829 0m-10.942 8.07c-.963.71-1.75 2.239-1.75 3.399 0 1.482-.455 1.934-1.531 1.521-1.273-.489-1.425.071-.904 3.333.695 4.346-.921 9.246-4.393 13.317a226.489 226.489 0 0 0-4.118 5l-1.987 2.5-.034-2.777c-.02-1.715-1.236-4.042-3.179-6.083-1.73-1.818-3.642-4.844-4.25-6.723-.782-2.421-1.792-3.514-3.465-3.751-1.406-.199-2.108.075-1.735.678.344.557-.284 1.301-1.395 1.653-3.529 1.12-7.587 5.237-9.551 9.69-1.047 2.372-2.365 4.659-2.93 5.082-.658.492-.398 1.252.722 2.11.963.738 1.75 1.83 1.75 2.427 0 1.279 6.525 5.085 11.348 6.619 1.674.532 1.561.915-1.207 4.067-2.789 3.176-6.136 11.586-6.145 15.44-.006 2.764-3.91 8.085-6.713 9.15-1.978.753-2.357 1.254-1.396 1.848 1.008.623 1.059 1.303.216 2.877-1.34 2.504-1.411 3.501-.196 2.751.498-.309.689.452.424 1.691-.475 2.214-.447 2.21 1.726-.249 2.141-2.423 2.188-2.431 1.509-.25-.425 1.366-.281 2.25.367 2.25.587 0 1.067-.45 1.067-1s.625-1 1.389-1c.813 0 1.68-1.554 2.092-3.749.823-4.39 6.172-13.522 8.946-15.272 3.78-2.387 6.285 5.985 3.392 11.337-.649 1.201-1.277 5.378-1.395 9.282-.126 4.159-.879 8.382-1.82 10.2-.882 1.706-1.604 4.61-1.604 6.452 0 6.429-4.39 11.286-13.454 14.884-11.271 4.475-18.948 8.38-26.836 13.649-7.678 5.13-10.322 7.925-3.609 3.815C192.56 273.42 205 267.41 205 268.501c0 .248-1.687 1.342-3.75 2.431-5.291 2.793-4.107 2.552 7.041-1.432 10.354-3.701 13.302-4.269 12.104-2.33-.48.777-.186.964.875.557 6.858-2.632 55.44-4.495 63.064-2.419 2.069.564 2.637.454 2.105-.406-1.058-1.712 5.022-.442 17.061 3.563 15.961 5.31 12.089 2.148-5-4.083-10.754-3.922-9.317-4.369 2.773-.864 8.818 2.557 21.638 8.221 29.626 13.091 6.269 3.822 4.107 1.149-2.943-3.639-10.33-7.015-32.806-16.97-38.315-16.97-2.707 0-4.006-4.321-5.559-18.5-.421-3.85-1.334-8.47-2.028-10.268-1.571-4.069-.644-8.492 1.687-8.043 2.241.431 7.036 7.516 7.842 11.588.637 3.213 2.847 5.223 5.744 5.223 1.893 0 2.997-2.905 1.699-4.469-.555-.668-.726-1.498-.38-1.844.346-.345-.783-1.947-2.509-3.559-1.725-1.612-3.137-3.568-3.137-4.348 0-3.339-3.244-11.917-5.538-14.642-2.081-2.474-2.189-2.879-.661-2.48 1.209.316 3.242-.936 6.006-3.7 4.308-4.309 7.193-4.75 7.193-1.1 0 1.056.938 2.983 2.084 4.281 1.333 1.51 1.9 1.771 1.575.724-.39-1.253-.022-1.509 1.574-1.092 2.071.542 2.071.533-.075-1.613-1.187-1.187-2.158-2.647-2.158-3.245 0-.597-2.771-3.972-6.159-7.5-5.36-5.582-6.624-6.409-9.75-6.381-4.092.036-7.306 2.047-7.476 4.677-.063.985-.91 2.914-1.881 4.287l-1.767 2.496-2.445-2.996c-4.145-5.077-5.775-9.334-5.051-13.192.443-2.364.311-3.287-.407-2.843-.613.378-1.064-.17-1.064-1.295 0-2.347-3.007-3.758-4.155-1.95-.448.706-.85.834-.893.284-.043-.55-.495.037-1.003 1.304-.673 1.677-.481 2.98.705 4.791 1.512 2.307 2.948 7.396 3.785 13.405.191 1.375 1.296 4.283 2.455 6.461 2.771 5.213 2.659 10.039-.394 16.943-3.12 7.055-3.122 9.573-.013 19.308 1.368 4.283 2.493 8.7 2.5 9.815.007 1.116.657 2.947 1.443 4.07 1.42 2.027 1.324 2.043-13 2.123-13.238.073-14.43-.068-14.43-1.713 0-.986.609-2.027 1.353-2.312.744-.286 1.912-3.371 2.597-6.857s2.375-9.917 3.755-14.292c2.911-9.223 2.71-12.795-1.274-22.546-3.23-7.907-2.932-14.583.946-21.2 1.394-2.379 2.539-5.219 2.545-6.312.02-3.997 2.636-13.102 4.828-16.803 2.543-4.294 2.761-5.119 1.08-4.08-.782.483-.962.182-.544-.909.345-.898.196-1.898-.33-2.223-.526-.325-1.001-.002-1.056.718-.055.72-.392.328-.75-.871-.56-1.879-.891-2.002-2.4-.89m-23.295 4.957c-1.643 1.806-.602 4.464 1.528 3.907 2.575-.673 3.167-2.719 1.151-3.978-1.172-.732-1.968-.711-2.679.071M275 162c0 .55.45 1 1 1s1-.45 1-1-.45-1-1-1-1 .45-1 1m10 11.5c0 .825.675 1.5 1.5 1.5s1.5-.675 1.5-1.5-.675-1.5-1.5-1.5-1.5.675-1.5 1.5m22 8c0 .825.45 1.5 1 1.5s1-.675 1-1.5-.45-1.5-1-1.5-1 .675-1 1.5m-49.731 9.738c-1.783 2.258-1.085 4.512 1.398 4.512 2.641 0 3.218-2.771.966-4.64-1.028-.853-1.615-.822-2.364.128M259 212.441c0 .857.45 1.559 1 1.559s1-.423 1-.941-.45-1.219-1-1.559c-.55-.34-1 .084-1 .941m45.068 14.977c-1.473 1.775-.295 4.582 1.922 4.582 2.476 0 3.162-3.424.961-4.799-1.349-.842-2.047-.79-2.883.217M235 248.909c-6.243 6.339-6.267 7.778-.101 6.118 3.781-1.018 4.101-1.369 4.101-4.507 0-4.379-.912-4.746-4-1.611M277 253c0 .55 1.238.993 2.75.985 2.143-.012 2.419-.23 1.25-.985-1.957-1.264-4-1.264-4 0m-24.366 18.073c-3.374 2.655-6.679 8.372-10.651 18.427-2.069 5.238-4.251 8.935-6.321 10.709-4.069 3.487-4.337 3.451-3.873-.527.648-5.551-3.641-9.72-9.61-9.343-4.904.31-9.179 2.042-9.179 3.719 0 2.872-14.162 15.113-15.703 13.572-.329-.328.607-2.919 2.079-5.756 2.524-4.866 2.58-5.265.989-7.023-.928-1.026-2.177-1.77-2.776-1.655-.599.116-2.529-.556-4.289-1.493-5.425-2.887-10.358-1.196-14.402 4.938l-1.885 2.859-.006-2.527c-.01-3.739-2.321-6.412-9.114-10.538-6.835-4.152-6.537-5.394 1.298-5.42 5.225-.017 6.421-1.004 4.826-3.983-2.259-4.222-12.192-3.28-18.133 1.719-5.181 4.36-3.866 7.519 5.866 14.098 3.762 2.543 6.25 4.938 6.25 6.014 0 4.561-9.975 9.669-15.423 7.898-9.352-3.04-12.685-1.164-6.34 3.568 7.758 5.788 23.412 2.229 28.741-6.533l1.753-2.882.651 4.072c.82 5.132 3.862 6.889 9.128 5.272 2.811-.862 3.49-.804 3.49.3 0 4.683 8.918 4.126 16.056-1.002 2.719-1.954 4.944-3.08 4.944-2.503s1.646 1.737 3.657 2.577l3.657 1.528-5.678 3.171c-11.014 6.151-14.293 11.105-10.117 15.281 6.239 6.239 14.554 2.105 21.788-10.831 2.35-4.202 5.017-7.389 7.631-9.119 4.89-3.236 4.895-3.237 4.329-.277-1.086 5.681 3.812 3.994 9.048-3.116 1.931-2.622 4.911-5.586 6.622-6.588l3.11-1.82-2.748 5.603c-3.253 6.634-2.556 8.869 2.914 9.34 4.322.372 7.566-2.146 13.809-10.72 4.161-5.713 8.185-8.417 6.447-4.332-3.853 9.057-3.204 11.571 3.905 15.138l4.759 2.388 3.726-3.638c4.44-4.336 4.37-4.328 8.66-1.056 4.153 3.168 6.089 2.701 10.901-2.625 4.073-4.508 5.685-4.903 7.093-1.736 1.536 3.456 8.001 5.537 11.189 3.602 2.341-1.42 2.666-1.364 4.858.828 1.292 1.292 3.097 2.349 4.012 2.349 1.71 0 7.759-5.611 10.716-9.94 2.448-3.584 3.164-1.836 1.386 3.384-1.479 4.339-1.46 4.6.408 5.6 2.721 1.456 3.762.536 6.694-5.922l2.552-5.622 1.086 6 1.086 6 3.884.318c3.602.296 4.318-.127 9.833-5.798 4.914-5.053 5.736-6.371 4.729-7.584-1.036-1.249-2.012-.718-6.522 3.548-6.605 6.246-6.842 6.232-6.068-.357 1.027-8.738-3.242-12.864-8.792-8.498-2.01 1.581-2.997 1.838-3.835 1-2.021-2.021-3.646-1.221-9.891 4.871-8.329 8.125-9.032 8.104-5.769-.176 1.966-4.987 1.981-5.314.309-6.537-3.031-2.216-4.171-1.47-7.573 4.959-4.014 7.587-7.571 9.331-6.334 3.106 1.562-7.861 1.269-9.824-1.514-10.148-2.057-.24-2.865.38-4.233 3.25-1.91 4.003-4.707 4.766-4.756 1.296-.13-9.192-11.381-8.824-17.854.585C290.87 301.05 283.144 308 281.147 308c-2.989 0 3.004-13.04 7.886-17.16 4.858-4.101.56-6.923-4.97-3.263-3.584 2.372-4.751 2.632-9.572 2.134l-5.491-.566v3.392c0 3.641-3.666 8.665-9.197 12.603l-2.964 2.111 2.639-5.208c5.161-10.184 1.546-13.977-7.085-7.436l-4.893 3.708 4.657-5.016c4.967-5.349 7.994-10.527 9.629-16.472 1.886-6.859-3.468-10.225-9.152-5.754m.96 10.965c-2.535 3.83-4.941 8.962-4.202 8.962.623 0 5.669-8.029 6.622-10.538 1.333-3.506.647-3.059-2.42 1.576m-65.895 16.212c-3.767 5.095-4.066 6.75-1.219 6.75 2.86 0 8.056-6.16 7.162-8.49-.94-2.451-3.371-1.739-5.943 1.74m32.017.654c-1.922 3.254-2.274 7.096-.65 7.096 3.695 0 7.472-4.728 6.422-8.038-.91-2.868-3.8-2.396-5.772.942m82.043-.654c-1.985 3.037-3.095 6.75-2.018 6.75 2.475 0 6.493-5.227 5.669-7.373-.852-2.222-1.909-2.042-3.651.623M215.5 320.056c-4.106 3.08-6.5 5.708-6.5 7.135 0 2.693 6.488-2.249 9.307-7.089 2.2-3.778 2.17-3.779-2.807-.046" fill-rule="evenodd"/><path fill="#efd2e3" stroke="#efd2e3" d="M281.077 138.953c-1.636 1.01-.2 4.047 1.913 4.047 2.454 0 3.316-3.687 1.005-4.291-.976-.255-2.289-.146-2.918.244m-17.473 8.215c.253.41 1.233.455 2.178.101 1.414-.529 1.506-.382.519.835-.973 1.2-.853 1.504.638 1.616 1.342.102 1.702-.376 1.338-1.77-.332-1.269-1.277-1.845-2.816-1.717-1.274.105-2.11.526-1.857.935m-8.086 6.296c-.75 2.639-.926 2.748-1.61 1-.643-1.646-.779-1.502-.838.893-.045 1.856-.508 2.689-1.32 2.377-.909-.348-1.25 1.056-1.25 5.143 0 5.08-.435 6.222-4.5 11.819-4.836 6.659-6 7.48-6 4.233 0-1.138-1.8-4.205-4-6.814s-4-5.679-4-6.822c0-2.551-2.843-3.827-4.377-1.964-.618.75-2.803 2.365-4.856 3.589-2.53 1.507-4.462 3.812-5.994 7.153-1.244 2.711-2.68 4.929-3.191 4.929-.512 0 .126 1.125 1.418 2.5 1.292 1.375 1.933 2.507 1.424 2.515-1.584.025 8.036 5.194 11.999 6.447 1.844.583 1.834.67-.256 2.134-2.807 1.966-4.975 6.215-6.77 13.267-2.239 8.797-3.45 11.113-6.683 12.785-2.257 1.167-2.667 1.763-1.649 2.392 1.096.678.98 1.265-.605 3.069-1.752 1.994-1.772 2.162-.187 1.583 1.556-.568 1.63-.373.605 1.581l-1.169 2.227 2.278-2 2.279-2-.74 2.375c-.509 1.632-.394 2.161.367 1.691.609-.376 1.107-1.388 1.107-2.247 0-1.209.31-1.306 1.367-.43 1.106.918 1.465.398 1.884-2.724.795-5.925 9.435-18.095 11.806-16.629 2.429 1.5 3.133 7.677 1.395 12.228-.966 2.53-1.681 6.733-1.589 9.341.099 2.77-.67 6.868-1.847 9.855-1.109 2.813-2.016 6.605-2.016 8.427 0 3.533-5.019 11.588-7.256 11.645-.684.017-2.144.739-3.244 1.603l-2 1.572 2-.524c1.1-.288 3.012-.815 4.25-1.171 1.238-.356 2.25-.238 2.25.262s-1.734 1.429-3.853 2.064c-5.273 1.58-17.471 7.172-16.896 7.746.256.256 2.442-.38 4.857-1.414 4.314-1.848 16.618-5.243 18.456-5.094.515.042-.639.723-2.564 1.513-3.412 1.4-3.424 1.426-.5 1.004 14.781-2.129 26.183-2.776 42.684-2.421 10.433.224 18.147.049 17.143-.39-3.617-1.58 7.869.39 15.917 2.73 11.211 3.26 10.862 2.432-.693-1.644-5.251-1.853-9.548-3.736-9.549-4.185-.001-.45.786-.592 1.748-.315.962.276 5.415 1.468 9.895 2.648 4.48 1.181 13.368 4.731 19.75 7.891 6.383 3.159 11.605 5.588 11.605 5.398 0-2.283-21.375-13.378-33.5-17.388C286.659 255 286 254.583 286 251c0-1.516-.675-4.371-1.5-6.346-.825-1.974-1.5-5.623-1.5-8.108 0-2.484-.536-6.52-1.19-8.967-1.526-5.706.06-10.312 2.926-8.495 2.385 1.512 6.902 8.993 7.744 12.823.375 1.711 1.058 2.879 1.516 2.595.458-.283 1.061.051 1.34.742.377.935.526.905.585-.116.057-.982.435-1.078 1.329-.337.962.797 1.269.133 1.33-2.878.045-2.152-.275-3.913-.711-3.913-1.891 0-4.816-4.618-5.928-9.36-1.483-6.324-2.455-8.336-5.813-12.033-2.594-2.855-2.599-2.885-.34-2.333 1.753.428 3.381-.474 6.963-3.858 5.708-5.391 5.874-5.4 7.371-.404.661 2.206 1.878 4.569 2.704 5.25 1.307 1.078 1.346.947.303-1.012-1.302-2.443-.31-3.006 1.762-1 3.892 3.77-4.28-7.546-8.981-12.436-4.324-4.497-6.255-5.814-8.527-5.814-3.636 0-7.383 2.505-7.383 4.934 0 1.002-.675 2.381-1.5 3.066s-1.5 1.865-1.5 2.622c0 2.59-1.5 1.353-5.296-4.368-2.92-4.399-3.728-6.533-3.5-9.237.368-4.37-3.567-9.682-5.708-7.704-.708.653-1.082 1.525-.832 1.937.25.412-.059.75-.687.75-.689 0-.372 1.285.802 3.25 1.068 1.787 2.529 6.175 3.245 9.75.717 3.575 2.13 8.068 3.14 9.985 2.536 4.815 2.3 10.127-.848 19.013l-2.684 7.578 2.593 8.462c1.426 4.654 2.911 10.037 3.299 11.962.389 1.925 1.16 4.063 1.714 4.75.795.988-1.731 1.25-12.034 1.25-7.172 0-13.752.273-14.622.607-2.007.77-2.195-3.217-.261-5.528.726-.869 2.115-5.179 3.085-9.579.971-4.4 2.664-10.475 3.763-13.5 2.354-6.477 1.986-10.343-1.839-19.344-3.415-8.036-3.343-14.023.248-20.622 1.48-2.719 2.769-5.752 2.865-6.739.588-6.043 3.19-14.949 5.259-17.997 1.814-2.673 2.01-3.401.79-2.933-1.287.494-1.484.184-.95-1.497.428-1.35.297-1.886-.363-1.478-.57.352-1.212-.38-1.427-1.625-.357-2.069-.464-2.008-1.234.699m-23.83 4.182c-1.416 1.415-.615 3.354 1.385 3.354 1.398 0 1.968-.543 1.75-1.667-.357-1.841-2.064-2.759-3.135-1.687M275 162c0 .55.45 1 1 1s1-.45 1-1-.45-1-1-1-1 .45-1 1m10.553 10.915a1.116 1.116 0 0 0 .362 1.532c.521.322 1.21.159 1.532-.362a1.116 1.116 0 0 0-.362-1.532 1.116 1.116 0 0 0-1.532.362M307.5 181c-.34.55-.141 1 .441 1s1.059-.45 1.059-1-.198-1-.441-1-.719.45-1.059 1m-50.194 10.712c-1.519.531-.518 3.288 1.194 3.288.707 0 1.531-.638 1.83-1.417.584-1.524-1.077-2.552-3.024-1.871m47.08 36.053c-1.48.977-.309 3.666 1.743 4.001 2.113.345 3.174-3.436 1.179-4.201-1.777-.682-1.562-.697-2.922.2m-67.81 18.997c-.373 1.175-1.487 2.392-2.475 2.706-1.755.557-4.618 5.348-3.728 6.238.246.246 2.4.064 4.787-.405 3.852-.757 4.373-1.187 4.634-3.827.401-4.057-2.212-7.883-3.218-4.712m39.809 6.052c.856 1.385 6.752 2.102 6.315.767-.195-.595-1.828-1.225-3.63-1.402-1.903-.187-3.028.08-2.685.635M234.5 258l-3 .763 2.691.119c1.48.065 2.969-.332 3.309-.882.34-.55.479-.947.309-.882-.17.065-1.659.462-3.309.882m44.5 1c.825.533 2.175.969 3 .969 1.333 0 1.333-.107 0-.969-.825-.533-2.175-.969-3-.969-1.333 0-1.333.107 0 .969m-67 4c-.825.533-1.05.969-.5.969s1.675-.436 2.5-.969c.825-.533 1.05-.969.5-.969s-1.675.436-2.5.969m-9.559 4.555c-1.91 1.53-1.909 1.541.059.635 1.1-.506 2.675-1.17 3.5-1.476 1.296-.48 1.288-.567-.059-.635-.857-.043-2.432.621-3.5 1.476M197 270c-.825.533-1.05.969-.5.969s1.675-.436 2.5-.969c.825-.533 1.05-.969.5-.969s-1.675.436-2.5.969m56.238.546c-2.91 2.038-6.949 9.046-10.914 18.935-2.474 6.17-4.18 8.823-7.401 11.507l-4.187 3.489.696-3.166c.781-3.558-1.314-8.642-4.198-10.186-3.502-1.874-11.11-.118-13.519 3.12-3.118 4.191-10.454 11.17-13.85 13.176-3.663 2.164-3.831.621-.646-5.935 2.308-4.751 1.773-7.963-1.335-8.005-.765-.011-3.088-.825-5.163-1.809-8.5-4.034-17.817 5.446-14.684 14.939l1.194 3.618 5.384-.447c4.087-.339 5.385-.119 5.385.91 0 4.619 10.51 3.433 16.545-1.866 3.37-2.959 3.591-3.013 5.443-1.337 1.061.961 3.411 2.064 5.221 2.451l3.291.704-6.207 3.171c-12.801 6.538-16.96 13.238-10.343 16.659 7.266 3.757 13.762-.038 19.965-11.662 2.57-4.817 4.627-7.185 8.323-9.578l4.909-3.18-.653 2.973c-1.115 5.075 3.615 4.129 7.485-1.497 3.078-4.474 9.636-10.248 10.574-9.311.274.274-.723 2.852-2.216 5.729-4.007 7.724-.217 11.596 7.357 7.517 3.069-1.652 11.488-11.373 12.461-14.386.389-1.204 4.845-2.465 4.845-1.372 0 .205-.927 2.189-2.059 4.409-2.963 5.807-2.29 8.854 2.559 11.592 5.467 3.087 7.21 2.879 11.183-1.334l3.42-3.626 2.199 2.001c6.213 5.655 10.603 4.163 16.252-5.523.494-.847 3.458 1.236 3.946 2.773 1.014 3.196 8.219 5.415 11.212 3.454 2.342-1.534 2.561-1.509 3.94.461 3.028 4.323 7.741 2.871 13.099-4.035 4.889-6.301 6.594-6.177 4.331.315-2.867 8.224 2.193 8.474 6.199.306 3.261-6.65 4.719-6.984 4.719-1.082 0 6.134.756 7.582 3.959 7.582 5.349 0 16.04-9.953 14.633-13.622-.557-1.45-1.55-.863-6.032 3.562-5.153 5.09-8.321 6.033-7.075 2.108 1.454-4.582.845-9.362-1.428-11.203-2.941-2.381-3.314-2.341-6.98.744-1.692 1.424-3.077 2.085-3.077 1.469 0-3.316-3.489-1.905-9.452 3.82-8.598 8.257-9.856 8.245-6.878-.065 2.992-8.349-2.308-11.162-5.773-3.063-3.976 9.295-8.571 12.068-7.459 4.5 1.368-9.305 1.302-9.722-1.592-10.057-2.247-.26-2.828.221-3.792 3.144-1.376 4.169-5.054 5.773-5.054 2.204 0-3.46-3.696-7.542-6.823-7.534-3.648.009-7.189 2.545-11.917 8.536-4.649 5.892-9.817 10.457-11.837 10.457-3.57 0 .709-10.166 7.18-17.057 2.098-2.234 2.23-2.789 1.044-4.411-1.303-1.783-1.49-1.754-4.752.722-4.087 3.103-10.289 4.494-12.362 2.773-2.094-1.737-3.533-.387-3.533 3.316 0 2.583-1.091 4.303-5.475 8.633-6.471 6.39-7.545 6.174-3.931-.791 2.751-5.303 2.751-10.185-.001-10.185-.753 0-3.782 1.657-6.731 3.683l-5.362 3.683 4.51-5.024c8.397-9.355 12.413-20.975 8.056-23.307-2.653-1.42-4.241-1.301-6.828.511m-88.898 4.414c-5.071 1.205-9.752 4.426-10.812 7.44-1.078 3.066 1.297 5.778 10.37 11.84 4.846 3.238 5.245 5.797 1.45 9.313-4.436 4.111-9.292 5.028-15.262 2.881-9.136-3.286-9.641 1.661-.525 5.142 11.288 4.311 25.397-2.38 27.096-12.851.778-4.795-1.355-7.625-9.213-12.22-7.089-4.146-7.077-5.407.056-5.56 5.921-.127 7.421-.992 6.408-3.695-.464-1.238-1.496-2.25-2.294-2.25s-2.05-.178-2.782-.396c-.733-.217-2.754-.058-4.492.356m89.903 5.732c-2.779 3.952-5.477 9.407-4.926 9.959.561.56 3.772-3.895 6.122-8.494 2.164-4.234 1.406-5.163-1.196-1.465m-65.944 16.558c-5.257 5.772-5.122 10.829.197 7.344 2.909-1.905 6.674-7.511 5.893-8.773-.955-1.546-4.04-.822-6.09 1.429m31.772.387c-2.077 2.641-2.901 9.363-1.148 9.363 2.114 0 7.077-5.298 7.077-7.554 0-3.923-3.441-4.972-5.929-1.809m81.987.016c-2.24 2.849-3.673 7.065-2.723 8.015.994.994 6.665-5.415 6.665-7.532 0-3.187-1.655-3.389-3.942-.483m-87.968 23.37c-4.868 3.848-6.566 6.977-3.786 6.977 1.527 0 6.945-5.505 8.611-8.75 1.574-3.066 1.055-2.875-4.825 1.773" fill-rule="evenodd"/><path fill="#1b99db" stroke="#1b99db" d="M281.617 139.556c-.937 2.441-.756 3.111.84 3.111 2.012 0 2.707-2.286 1.1-3.619-.994-.826-1.477-.699-1.94.508m-26.286 15.194-.707 2.75-.712-2.5c-.648-2.274-.722-2.196-.812.872-.084 2.833-.333 3.18-1.554 2.166-1.246-1.034-1.328-.763-.57 1.877 1.271 4.434-.914 10.614-5.689 16.085-.72.825-2.189 2.625-3.265 4l-1.955 2.5-.034-2.715c-.029-2.365-4.991-9.6-7.283-10.618-.412-.184-.75-1.366-.75-2.628 0-3.927-2.425-4.989-5.331-2.335-1.383 1.263-3.83 3.285-5.437 4.494-3.775 2.839-7.858 12.125-5.695 12.954.804.309 1.463 1.117 1.463 1.796 0 1.407 8.94 6.552 11.385 6.552 2.206 0 2.026 1.318-.491 3.595-2.723 2.463-5.445 7.919-6.299 12.63-1.154 6.356-3.515 10.755-6.871 12.802-2.447 1.492-2.76 1.966-1.3 1.969 1.787.004 1.756.183-.424 2.504-1.292 1.375-1.82 2.5-1.174 2.5.646 0 1.174-.45 1.174-1s.502-1 1.115-1c.661 0 .395 1.119-.655 2.75l-1.77 2.75 2.122-1.875c1.186-1.048 2.968-1.654 4.04-1.374 1.576.412 2.005-.147 2.406-3.136.498-3.718 4.927-11.162 8.637-14.52 4.489-4.062 7.63 4.122 4.614 12.021-1.042 2.727-1.492 5.72-1.131 7.523.369 1.847-.194 5.346-1.47 9.135-1.138 3.378-2.282 7.908-2.542 10.066-.261 2.158-1.554 5.515-2.875 7.459-2.472 3.637-2.451 5.201.068 5.201.793 0 1.441.381 1.441.847 0 .466 1.012 1.304 2.25 1.862 2.074.935 1.858 1.142-2.75 2.637-2.75.892-3.875 1.411-2.5 1.154 10.395-1.946 21.554-2.606 39.332-2.325 11.337.179 19.837.019 18.89-.355-1.672-.66.684-1.228 4.517-1.09.682.024 1.022-.308.756-.738-2.994-4.845 25.954 3.636 38.485 11.275 2.509 1.529 3.144 1.677 2.211.515-2.213-2.754-24.213-13.301-32.971-15.805-7.254-2.074-8.342-2.684-8.778-4.922-.274-1.405-1.144-4.805-1.934-7.555s-1.669-7.7-1.955-11c-.285-3.3-.801-7.694-1.147-9.764-.85-5.093.844-7.274 4.028-5.187 2.264 1.483 7.566 10.82 7.566 13.322 0 .77.627 1.103 1.468.78.807-.31 1.764-.085 2.125.499.439.711.928.624 1.475-.26.45-.727.371-1.86-.174-2.517-.665-.801-.617-1.426.146-1.898.731-.452.303-1.112-1.202-1.852-1.739-.855-3.034-3.301-5.055-9.547-1.626-5.026-3.809-9.538-5.437-11.237l-2.72-2.839h2.605c1.68 0 4.086-1.422 6.769-4 4.931-4.738 5.732-4.88 7.041-1.25 1.67 4.634 3.104 7.266 2.32 4.258-.591-2.267-.494-2.363 1.07-1.065 3.561 2.956-2.791-6.432-7.55-11.157-7.104-7.054-14.517-7.404-15.877-.75-.551 2.695-3.093 6.964-4.147 6.964-2.006 0-7.857-11.11-7.857-14.919 0-2.245-.45-4.081-1-4.081s-1-.627-1-1.393-.652-1.643-1.449-1.949c-1.036-.398-1.268-.072-.813 1.143.535 1.429.39 1.499-.914.44-1.804-1.465-1.83 1.987-.04 5.385.543 1.031 1.533 4.574 2.202 7.874.668 3.3 2.01 7.575 2.983 9.5 2.979 5.896 3.198 9.595.936 15.811-4.126 11.342-4.129 11.375-1.466 19.832 1.36 4.321 2.775 9.769 3.145 12.107.369 2.338 1.064 4.25 1.544 4.25s.871.563.87 1.25c-.002.946-3.586 1.235-14.75 1.188l-14.748-.062.279-2.438c.154-1.341.691-2.579 1.193-2.752.503-.173 1.905-4.673 3.117-10 1.211-5.327 2.812-10.901 3.557-12.386 2.282-4.55 1.652-11.906-1.747-20.393-3.534-8.826-3.444-12.481.513-20.907 2.12-4.515 3.159-8.225 5.119-18.274.351-1.801 1.838-4.703 3.304-6.449 2.042-2.433 2.241-3.013.85-2.483-1.517.579-1.706.324-1.147-1.55.66-2.214.647-2.217-.95-.244-1.571 1.941-1.6 1.918-.995-.75.343-1.512.359-2.75.034-2.75-.324 0-.907 1.238-1.296 2.75m-23.912 3.381c-.852 1.379 1.105 3.281 2.494 2.423.598-.37 1.087-1.047 1.087-1.506 0-1.33-2.871-2.066-3.581-.917M285.5 173c-.34.55.11 1 1 1s1.34-.45 1-1c-.34-.55-.79-1-1-1-.21 0-.66.45-1 1m-27.99 18.983c-.435.704-.183 1.601.583 2.074 1.821 1.126 2.294.457 1.137-1.61-.713-1.275-1.146-1.392-1.72-.464m46.846 35.712c-.629.221-.917 1.269-.639 2.329.404 1.546.878 1.728 2.393.917 3.019-1.616 1.518-4.392-1.754-3.246m-67.324 17.234c-.018.786-1.607 2.872-3.532 4.635-5.428 4.971-4.836 7.363 1.5 6.065 4.888-1.001 5-1.105 5-4.635 0-3.422-2.895-9.338-2.968-6.065M276 252.875c0 .931 6.016 2.443 6.76 1.698.242-.242.144-.92-.219-1.506-.788-1.276-6.541-1.445-6.541-.192M250.273 258c1.398 1.1 3.371 1.993 4.385 1.985 1.555-.013 1.608-.167.342-.985-.901-.582-1.025-.975-.309-.985.655-.008 1.469.435 1.809.985.939 1.519 10.069 1.224 11.39-.367 1.417-1.707-3.133-2.606-13.275-2.622L247.73 256l2.543 2m-18.13-.11c-1.597 1.012-.758 1.636 3.392 2.525 2.571.55 3.058.339 3.188-1.383.164-2.188-3.834-2.882-6.58-1.142m44.582 2.052c-.591 2.26-.016 3.058 2.201 3.058 1.735 0 4.333-3.408 3.348-4.392-1.399-1.4-5.064-.519-5.549 1.334M217 265c-1.828 1.181-.249 1.181 2.5 0 1.319-.567 1.489-.878.5-.914-.825-.031-2.175.381-3 .914m-4.187 1.683c.721.289 1.584.253 1.916-.079.332-.332-.258-.568-1.312-.525-1.165.048-1.402.285-.604.604m40.598 4.089c-3.528 2.918-6.723 8.302-10.477 17.65-2.855 7.112-4.449 9.657-7.761 12.392l-4.169 3.441.159-4.057c.26-6.636-2.122-9.198-8.551-9.198-5.51 0-10.612 2.621-10.612 5.451 0 2.461-14.333 13.549-15.721 12.162-.302-.303.726-3.071 2.286-6.153 3.071-6.071 2.603-9.237-1.282-8.673-1.087.158-2.551-.405-3.252-1.25-3.446-4.152-12.902-.483-15.64 6.069-3.062 7.33.143 11.965 7.659 11.074 2.928-.346 4.78-.214 4.45.319-.31.502.596 1.673 2.013 2.602 3.375 2.211 8.577.762 13.956-3.888l3.837-3.316 2.301 2.301c1.453 1.453 3.518 2.312 5.598 2.328 3.034.025 2.702.34-4.205 3.982-12.921 6.814-16.703 13.547-9.338 16.624 7.526 3.145 13.542-.831 20.015-13.228 2.058-3.942 4.146-6.231 7.706-8.447l4.884-3.04-.609 3.041c-1.053 5.269 3.251 4.118 7.951-2.126 3.969-5.272 8.933-9.623 9.889-8.667.292.292-.642 3.091-2.074 6.221-3.001 6.553-2.299 8.614 2.93 8.614 3.557 0 15.122-11.065 16.246-15.544.44-1.752 1.303-2.456 3.008-2.456 2.886 0 2.867-.329.306 5.462-2.646 5.981-1.973 8.574 2.941 11.336 5.201 2.923 5.927 2.821 10.304-1.454l3.744-3.655 3.482 2.655c1.915 1.461 4.337 2.656 5.382 2.656 1.86 0 9.233-6.521 9.233-8.167 0-.458.9-.833 2-.833s2 .605 2 1.345c0 4.124 9.582 7.248 12.932 4.216 1.789-1.618 1.921-1.599 2.544.364 1.726 5.439 8.026 3.729 13.683-3.713 4.656-6.127 6.428-5.204 3.905 2.034-2.327 6.674 2.945 6.232 5.826-.489 3.036-7.083 5.11-8.022 5.11-2.314 0 6.627 1.429 8.921 5.101 8.187 3.874-.775 8.285-4.136 11.483-8.751 4.187-6.042 1.852-6.646-3.622-.936-6.556 6.837-8.319 6.761-7.434-.322 1.108-8.868-2.861-12.475-8.203-7.457-2.219 2.085-2.377 2.099-4.276.38-1.918-1.736-2.146-1.617-8.345 4.336-8.672 8.327-10.408 8.148-7.019-.725 1.612-4.222 1.604-4.47-.191-5.783-2.727-1.994-2.792-1.943-6.031 4.775-5.148 10.681-10.071 10.896-6.992.306 2.42-8.326-1.668-10.907-5.471-3.453-2.085 4.088-4.997 5.397-5.004 2.25-.008-3.855-3.807-8.25-7.132-8.25-2.703 0-4.569 1.462-12.768 10-5.282 5.5-10.164 10-10.85 10-3.443 0 .092-9.898 5.896-16.509 2.449-2.789 2.936-4.001 2.238-5.565-.873-1.957-.965-1.945-4.314.525-4.118 3.038-9.372 4.186-12.544 2.741-2.16-.984-2.372-.799-2.994 2.624-.625 3.445-10.492 15.184-12.761 15.184-.438 0 .595-2.756 2.296-6.124 4.957-9.82 2.847-13.472-4.663-8.071-7.989 5.746-8.301 5.402-1.771-1.95 4.873-5.486 9.345-13.863 9.361-17.534.021-4.713-4.773-6.697-8.579-3.549m-94.16 6.201c-8.687 3.943-7.816 9.109 2.605 15.44 6.667 4.049 7.477 5.263 5.804 8.694-2.76 5.661-11.873 7.918-19.396 4.804-4.576-1.894-6.933.275-3.419 3.147 8.588 7.018 24.996 3.716 29.905-6.02 3.748-7.432 1.898-11.232-8.312-17.074-6.547-3.745-6.334-4.491 1.54-5.382 6.037-.683 7.338-1.866 4.822-4.382-1.802-1.802-8.751-1.405-13.549.773m93.481 5.923c-4.828 7.456-5.109 11.534-.331 4.814 3.043-4.28 5.232-9.41 4.38-10.262-.174-.174-1.996 2.277-4.049 5.448m-65.637 15.8c-3.183 3.855-3.637 6.291-1.319 7.063 1.66.553 9.536-7.319 8.988-8.983-.922-2.798-4.518-1.898-7.669 1.92m32.978-1.061c-2.079 2.642-2.904 9.365-1.15 9.365 2.007 0 7.077-5.293 7.077-7.389 0-4.715-2.989-5.712-5.927-1.976m81.177.684c-2.209 3.244-3.039 7.681-1.437 7.681 1.881 0 6.187-5.78 6.187-8.305 0-3.651-2.02-3.386-4.75.624m-87.5 22.765c-5.812 4.982-6.494 8.29-1.297 6.296 1.472-.565 7.547-8.461 7.547-9.81 0-1.319-1.777-.32-6.25 3.514" fill-rule="evenodd"/><path fill="#e31775" stroke="#e31775" d="M231.5 159c.34.55 1.041 1 1.559 1s.941-.45.941-1-.702-1-1.559-1-1.281.45-.941 1m30.5 19.05c0 .577.622 2.264 1.383 3.75.76 1.485 1.707 5.175 2.105 8.2.397 3.025 1.629 6.992 2.739 8.816 2.883 4.738 2.857 12.337-.064 19.072-3.031 6.988-1.16 22.295 3.954 32.348 1.791 3.522 1.101 3.911-5.702 3.217-7.705-.786-21.681.308-20.862 1.633.311.503 5.601.921 11.756.929 6.155.009 11.866.452 12.691.985 1.282.828 1.246.972-.25.985-.962.008-1.75.465-1.75 1.015 0 .55 2.025 1 4.5 1s4.5-.45 4.5-1 1.35-1 3-1c2.956 0 3.97 1.283 1.984 2.51-2.633 1.627.541 2.2 4.355.786 5.201-1.928 16.841.923 31.605 7.74 4.706 2.173 7.708 3.298 6.672 2.499-4.054-3.123-17.532-9.457-25.616-12.037-13.287-4.241-12.566-3.742-13.932-9.658-.677-2.937-1.604-8.715-2.058-12.84-.455-4.125-1.246-8.85-1.759-10.5-1.101-3.54.263-8.5 2.337-8.5 1.837 0 8.101 8.696 8.807 12.226.38 1.897 1.173 2.774 2.51 2.774 2.842 0 3.133-4.065.447-6.243-1.239-1.004-2.672-3.969-3.385-7-1.632-6.943-3.56-10.77-6.803-13.502l-2.664-2.245 3.027-.005c3.031-.005 9.473-4.73 9.473-6.949 0-2.517 4.139-.956 5.149 1.943.575 1.649 1.45 2.749 1.945 2.443 2.345-1.449-8.316-14.125-12.95-15.398-4.61-1.266-8.841.97-8.217 4.343.09.488-.699 1.838-1.754 3-1.055 1.162-2.111 2.745-2.347 3.517-.271.886-1.78-.435-4.087-3.579-4.195-5.714-6.067-10.028-5.263-12.124.307-.8.046-2.072-.581-2.828-1.338-1.611-4.895-1.846-4.895-.323m42.598 49.686c-1.123 1.122-.601 3.264.795 3.264 1.89 0 2.813-2.707 1.142-3.348-.737-.283-1.608-.245-1.937.084M276 252.883c0 .869 3.301 2.077 5.75 2.103.688.008 1.25-.661 1.25-1.486 0-1.048-1.056-1.5-3.5-1.5-1.925 0-3.5.398-3.5.883M234 256l-2.5.801 2.5.084c1.375.046 3.175-.352 4-.885 1.91-1.234-.146-1.234-4 0m19.569 15.125c-3.814 3-7.199 8.724-11.051 18.688-2.721 7.037-4.03 9.109-7.173 11.356-4.77 3.411-5.184 3.442-4.593.349 1.286-6.728-1.883-10.418-8.9-10.364-4.186.033-5.506.492-7.236 2.519-8.058 9.439-16.711 16.565-18.248 15.028-.349-.349.557-3.071 2.013-6.048 2.869-5.862 2.633-8.635-.738-8.685-1.179-.017-3.017-.692-4.084-1.5-7.979-6.035-19.487 6.324-14.524 15.598 1.134 2.118 7.217 2.697 9.965.949 1.141-.726 1.629-.423 2.039 1.265 1.145 4.709 12.942 2.268 17.897-3.702 1.132-1.365 1.467-1.301 2.982.569.94 1.161 3.445 2.389 5.579 2.736l3.873.63-6.874 3.489c-14.498 7.359-17.65 14.911-7.254 17.381 5.998 1.425 11.711-3.447 17.561-14.976 1.285-2.531 3.912-5.29 6.887-7.231l4.81-3.138.313 2.981c.467 4.443 2.133 3.703 9.047-4.019 7.911-8.837 11.081-9.725 7.14-2-3.711 7.273-1.512 11.567 4.883 9.537 2.971-.943 11.121-10.363 10.459-12.088-.604-1.574-2.342-1.996-2.342-.569 0 1.051-8.935 8.518-9.508 7.945-.219-.219.909-2.989 2.506-6.156 4.857-9.627 1.714-12.859-6.314-6.494-5.227 4.144-5.822 2.787-1.055-2.405 8.183-8.911 12.011-18.301 8.873-21.767-2.299-2.541-3.577-2.519-6.933.122m-92.069 5.084c-5.66 1.984-9.293 6.539-7.622 9.554.53.955 4.033 3.772 7.783 6.26 8.073 5.353 8.624 6.892 4.096 11.42-4.376 4.376-9.586 5.462-15.683 3.27-6.644-2.389-9.042.661-2.824 3.59 11.373 5.358 25.718.27 28.716-10.185 1.641-5.72-2.788-11.316-11.963-15.117-5.28-2.187-2.103-4.679 6.247-4.901 3.867-.103 4.847-1.603 2.55-3.9-1.444-1.444-7.166-1.439-11.3.009m91.668 5.541c-3.537 5.526-5.494 10.25-4.247 10.25 1.052 0 6.541-8.414 7.99-12.25 1.629-4.309-.398-3.226-3.743 2m-66.632 16.982c-4.045 5.952-2.823 9.097 2.44 6.281 2.408-1.289 6.344-7.685 5.535-8.995-1.456-2.356-5.454-.996-7.975 2.714m34.131-1.917c-4.839 5.347-4.198 11.878.898 9.15 4.502-2.409 6.193-8.091 3.035-10.2-1.623-1.084-2.122-.95-3.933 1.05M217 318.101c-8.903 7.244-10.67 9.899-6.589 9.899 2.526 0 6.465-3.925 9.151-9.12 1.742-3.368.925-3.617-2.562-.779" fill-rule="evenodd"/></svg>